<mxfile host="app.diagrams.net" agent="Mozilla/5.0 (Macintosh; Intel Mac OS X 10_15_7) AppleWebKit/537.36 (KHTML, like Gecko) Chrome/141.0.0.0 Safari/537.36" version="28.1.2">
  <diagram name="Page-1" id="o38izYaOU5alYuEDEcSR">
    <mxGraphModel dx="1455" dy="779" grid="0" gridSize="10" guides="1" tooltips="1" connect="1" arrows="1" fold="1" page="1" pageScale="1" pageWidth="1100" pageHeight="850" math="0" shadow="0">
      <root>
        <mxCell id="0" />
        <mxCell id="1" parent="0" />
        <mxCell id="YRCod2hEBOEXPZXy-oD2-42" value="User&lt;div&gt;&lt;br&gt;&lt;/div&gt;" style="shape=umlActor;verticalLabelPosition=bottom;verticalAlign=top;html=1;outlineConnect=0;" parent="1" vertex="1">
          <mxGeometry x="980" y="300" width="30" height="60" as="geometry" />
        </mxCell>
        <mxCell id="YRCod2hEBOEXPZXy-oD2-45" value="" style="endArrow=classic;html=1;rounded=0;entryX=1;entryY=0.5;entryDx=0;entryDy=0;" parent="1" source="YRCod2hEBOEXPZXy-oD2-42" target="YRCod2hEBOEXPZXy-oD2-2" edge="1">
          <mxGeometry width="50" height="50" relative="1" as="geometry">
            <mxPoint x="600" y="340" as="sourcePoint" />
            <mxPoint x="530" y="120" as="targetPoint" />
          </mxGeometry>
        </mxCell>
        <mxCell id="YRCod2hEBOEXPZXy-oD2-46" value="bridgePing" style="edgeLabel;html=1;align=center;verticalAlign=middle;resizable=0;points=[];container=0;" parent="YRCod2hEBOEXPZXy-oD2-45" vertex="1" connectable="0">
          <mxGeometry x="-0.1499" y="4" relative="1" as="geometry">
            <mxPoint x="87" y="-9" as="offset" />
          </mxGeometry>
        </mxCell>
        <mxCell id="YRCod2hEBOEXPZXy-oD2-1" value="SMS" style="html=1;whiteSpace=wrap;container=0;" parent="1" vertex="1">
          <mxGeometry x="390" y="230" width="110" height="50" as="geometry" />
        </mxCell>
        <mxCell id="YRCod2hEBOEXPZXy-oD2-2" value="OmnichainAdapter" style="html=1;whiteSpace=wrap;container=0;" parent="1" vertex="1">
          <mxGeometry x="510" y="340" width="110" height="50" as="geometry" />
        </mxCell>
        <mxCell id="YRCod2hEBOEXPZXy-oD2-30" value="MMS" style="html=1;whiteSpace=wrap;container=0;" parent="1" vertex="1">
          <mxGeometry x="390" y="100" width="110" height="50" as="geometry" />
        </mxCell>
        <mxCell id="YRCod2hEBOEXPZXy-oD2-56" value="" style="endArrow=classic;startArrow=classic;html=1;rounded=0;entryX=0.5;entryY=1;entryDx=0;entryDy=0;exitX=0.25;exitY=0;exitDx=0;exitDy=0;" parent="1" source="YRCod2hEBOEXPZXy-oD2-2" target="YRCod2hEBOEXPZXy-oD2-1" edge="1">
          <mxGeometry width="50" height="50" relative="1" as="geometry">
            <mxPoint x="615" y="265" as="sourcePoint" />
            <mxPoint x="620" y="275" as="targetPoint" />
          </mxGeometry>
        </mxCell>
        <mxCell id="YRCod2hEBOEXPZXy-oD2-57" value="mint/burn" style="edgeLabel;html=1;align=center;verticalAlign=middle;resizable=0;points=[];container=0;" parent="YRCod2hEBOEXPZXy-oD2-56" vertex="1" connectable="0">
          <mxGeometry x="-0.0754" y="1" relative="1" as="geometry">
            <mxPoint as="offset" />
          </mxGeometry>
        </mxCell>
        <mxCell id="7vTWLDnwtGBLnaTd_AX2-18" value="Arbitrum" style="shape=umlFrame;whiteSpace=wrap;html=1;pointerEvents=0;" parent="1" vertex="1">
          <mxGeometry x="300" y="60" width="530" height="380" as="geometry" />
        </mxCell>
        <mxCell id="YRCod2hEBOEXPZXy-oD2-50" value="" style="endArrow=classic;startArrow=classic;html=1;rounded=0;exitX=0.25;exitY=0;exitDx=0;exitDy=0;entryX=0.25;entryY=1;entryDx=0;entryDy=0;" parent="1" source="YRCod2hEBOEXPZXy-oD2-38" target="YRCod2hEBOEXPZXy-oD2-2" edge="1">
          <mxGeometry width="50" height="50" relative="1" as="geometry">
            <mxPoint x="475" y="550" as="sourcePoint" />
            <mxPoint x="525" y="500" as="targetPoint" />
          </mxGeometry>
        </mxCell>
        <mxCell id="Am2DClsoOV5Q-4V6qdpF-19" value="LzMessage" style="edgeLabel;html=1;align=center;verticalAlign=middle;resizable=0;points=[];" parent="YRCod2hEBOEXPZXy-oD2-50" vertex="1" connectable="0">
          <mxGeometry x="0.1467" relative="1" as="geometry">
            <mxPoint x="-16" y="11" as="offset" />
          </mxGeometry>
        </mxCell>
        <mxCell id="7vTWLDnwtGBLnaTd_AX2-35" value="" style="endArrow=classic;startArrow=classic;html=1;rounded=0;exitX=0.5;exitY=1;exitDx=0;exitDy=0;entryX=0.5;entryY=0;entryDx=0;entryDy=0;" parent="1" source="YRCod2hEBOEXPZXy-oD2-30" target="YRCod2hEBOEXPZXy-oD2-1" edge="1">
          <mxGeometry width="50" height="50" relative="1" as="geometry">
            <mxPoint x="538" y="400" as="sourcePoint" />
            <mxPoint x="445" y="290" as="targetPoint" />
          </mxGeometry>
        </mxCell>
        <mxCell id="7vTWLDnwtGBLnaTd_AX2-36" value="stake/redeem" style="edgeLabel;html=1;align=center;verticalAlign=middle;resizable=0;points=[];container=0;" parent="7vTWLDnwtGBLnaTd_AX2-35" vertex="1" connectable="0">
          <mxGeometry x="-0.0754" y="1" relative="1" as="geometry">
            <mxPoint as="offset" />
          </mxGeometry>
        </mxCell>
        <mxCell id="Am2DClsoOV5Q-4V6qdpF-2" value="DataHubMainChain" style="html=1;whiteSpace=wrap;container=0;" parent="1" vertex="1">
          <mxGeometry x="650" y="175" width="110" height="50" as="geometry" />
        </mxCell>
        <mxCell id="Am2DClsoOV5Q-4V6qdpF-3" value="&lt;div&gt;Minter&lt;/div&gt;" style="shape=umlActor;verticalLabelPosition=bottom;verticalAlign=top;html=1;outlineConnect=0;" parent="1" vertex="1">
          <mxGeometry x="80" y="165" width="30" height="60" as="geometry" />
        </mxCell>
        <mxCell id="Am2DClsoOV5Q-4V6qdpF-4" value="" style="endArrow=classic;html=1;rounded=0;entryX=0;entryY=0.5;entryDx=0;entryDy=0;" parent="1" source="Am2DClsoOV5Q-4V6qdpF-3" target="YRCod2hEBOEXPZXy-oD2-1" edge="1">
          <mxGeometry width="50" height="50" relative="1" as="geometry">
            <mxPoint x="120" y="230" as="sourcePoint" />
            <mxPoint x="390" y="120" as="targetPoint" />
          </mxGeometry>
        </mxCell>
        <mxCell id="Am2DClsoOV5Q-4V6qdpF-5" value="mint/burn" style="edgeLabel;html=1;align=center;verticalAlign=middle;resizable=0;points=[];container=0;" parent="Am2DClsoOV5Q-4V6qdpF-4" vertex="1" connectable="0">
          <mxGeometry x="-0.1499" y="4" relative="1" as="geometry">
            <mxPoint as="offset" />
          </mxGeometry>
        </mxCell>
        <mxCell id="Am2DClsoOV5Q-4V6qdpF-8" value="" style="endArrow=classic;html=1;rounded=0;entryX=0;entryY=0.5;entryDx=0;entryDy=0;" parent="1" source="Am2DClsoOV5Q-4V6qdpF-3" target="YRCod2hEBOEXPZXy-oD2-30" edge="1">
          <mxGeometry width="50" height="50" relative="1" as="geometry">
            <mxPoint x="120" y="265" as="sourcePoint" />
            <mxPoint x="400" y="265" as="targetPoint" />
          </mxGeometry>
        </mxCell>
        <mxCell id="Am2DClsoOV5Q-4V6qdpF-9" value="stake/redeem" style="edgeLabel;html=1;align=center;verticalAlign=middle;resizable=0;points=[];container=0;" parent="Am2DClsoOV5Q-4V6qdpF-8" vertex="1" connectable="0">
          <mxGeometry x="-0.1499" y="4" relative="1" as="geometry">
            <mxPoint as="offset" />
          </mxGeometry>
        </mxCell>
        <mxCell id="Am2DClsoOV5Q-4V6qdpF-10" value="" style="endArrow=classic;html=1;rounded=0;entryX=0.5;entryY=0;entryDx=0;entryDy=0;" parent="1" target="YRCod2hEBOEXPZXy-oD2-37" edge="1">
          <mxGeometry width="50" height="50" relative="1" as="geometry">
            <mxPoint x="120" y="210" as="sourcePoint" />
            <mxPoint x="400" y="265" as="targetPoint" />
          </mxGeometry>
        </mxCell>
        <mxCell id="Am2DClsoOV5Q-4V6qdpF-11" value="mint/burn" style="edgeLabel;html=1;align=center;verticalAlign=middle;resizable=0;points=[];container=0;" parent="Am2DClsoOV5Q-4V6qdpF-10" vertex="1" connectable="0">
          <mxGeometry x="-0.1499" y="4" relative="1" as="geometry">
            <mxPoint as="offset" />
          </mxGeometry>
        </mxCell>
        <mxCell id="Am2DClsoOV5Q-4V6qdpF-12" value="" style="group" parent="1" vertex="1" connectable="0">
          <mxGeometry x="90" y="510" width="360" height="210" as="geometry" />
        </mxCell>
        <mxCell id="7vTWLDnwtGBLnaTd_AX2-16" value="Solana" style="shape=umlFrame;whiteSpace=wrap;html=1;pointerEvents=0;" parent="Am2DClsoOV5Q-4V6qdpF-12" vertex="1">
          <mxGeometry width="360" height="210" as="geometry" />
        </mxCell>
        <mxCell id="YRCod2hEBOEXPZXy-oD2-37" value="SMS&amp;nbsp;Mint Account" style="html=1;whiteSpace=wrap;" parent="Am2DClsoOV5Q-4V6qdpF-12" vertex="1">
          <mxGeometry x="30" y="50" width="110" height="50" as="geometry" />
        </mxCell>
        <mxCell id="YRCod2hEBOEXPZXy-oD2-38" value="OmnichainAdapter" style="html=1;whiteSpace=wrap;" parent="Am2DClsoOV5Q-4V6qdpF-12" vertex="1">
          <mxGeometry x="220" y="50" width="110" height="50" as="geometry" />
        </mxCell>
        <mxCell id="YRCod2hEBOEXPZXy-oD2-60" value="" style="endArrow=classic;startArrow=classic;html=1;rounded=0;entryX=0;entryY=0.5;entryDx=0;entryDy=0;exitX=1.006;exitY=0.469;exitDx=0;exitDy=0;exitPerimeter=0;" parent="Am2DClsoOV5Q-4V6qdpF-12" source="YRCod2hEBOEXPZXy-oD2-37" target="YRCod2hEBOEXPZXy-oD2-38" edge="1">
          <mxGeometry width="50" height="50" relative="1" as="geometry">
            <mxPoint x="110" y="90" as="sourcePoint" />
            <mxPoint x="40" y="50" as="targetPoint" />
          </mxGeometry>
        </mxCell>
        <mxCell id="YRCod2hEBOEXPZXy-oD2-61" value="mint/burn" style="edgeLabel;html=1;align=center;verticalAlign=middle;resizable=0;points=[];" parent="YRCod2hEBOEXPZXy-oD2-60" vertex="1" connectable="0">
          <mxGeometry x="-0.0754" y="1" relative="1" as="geometry">
            <mxPoint as="offset" />
          </mxGeometry>
        </mxCell>
        <mxCell id="Am2DClsoOV5Q-4V6qdpF-13" value="" style="group" parent="1" vertex="1" connectable="0">
          <mxGeometry x="660" y="510" width="360" height="210" as="geometry" />
        </mxCell>
        <mxCell id="Am2DClsoOV5Q-4V6qdpF-14" value="&amp;lt;Chain&lt;span style=&quot;background-color: transparent; color: light-dark(rgb(0, 0, 0), rgb(255, 255, 255));&quot;&gt;&amp;gt;&lt;/span&gt;" style="shape=umlFrame;whiteSpace=wrap;html=1;pointerEvents=0;" parent="Am2DClsoOV5Q-4V6qdpF-13" vertex="1">
          <mxGeometry width="360" height="210" as="geometry" />
        </mxCell>
        <mxCell id="Am2DClsoOV5Q-4V6qdpF-15" value="OmnichainAdapter" style="html=1;whiteSpace=wrap;" parent="Am2DClsoOV5Q-4V6qdpF-13" vertex="1">
          <mxGeometry x="30" y="50" width="110" height="50" as="geometry" />
        </mxCell>
        <mxCell id="Am2DClsoOV5Q-4V6qdpF-16" value="SMS" style="html=1;whiteSpace=wrap;" parent="Am2DClsoOV5Q-4V6qdpF-13" vertex="1">
          <mxGeometry x="220" y="50" width="110" height="50" as="geometry" />
        </mxCell>
        <mxCell id="Am2DClsoOV5Q-4V6qdpF-17" value="" style="endArrow=classic;startArrow=classic;html=1;rounded=0;entryX=0;entryY=0.5;entryDx=0;entryDy=0;exitX=1.006;exitY=0.469;exitDx=0;exitDy=0;exitPerimeter=0;" parent="Am2DClsoOV5Q-4V6qdpF-13" source="Am2DClsoOV5Q-4V6qdpF-15" target="Am2DClsoOV5Q-4V6qdpF-16" edge="1">
          <mxGeometry width="50" height="50" relative="1" as="geometry">
            <mxPoint x="110" y="90" as="sourcePoint" />
            <mxPoint x="40" y="50" as="targetPoint" />
          </mxGeometry>
        </mxCell>
        <mxCell id="Am2DClsoOV5Q-4V6qdpF-18" value="mint/burn" style="edgeLabel;html=1;align=center;verticalAlign=middle;resizable=0;points=[];" parent="Am2DClsoOV5Q-4V6qdpF-17" vertex="1" connectable="0">
          <mxGeometry x="-0.0754" y="1" relative="1" as="geometry">
            <mxPoint as="offset" />
          </mxGeometry>
        </mxCell>
        <mxCell id="Am2DClsoOV5Q-4V6qdpF-26" value="DataHub" style="html=1;whiteSpace=wrap;container=0;" parent="Am2DClsoOV5Q-4V6qdpF-13" vertex="1">
          <mxGeometry x="125" y="140" width="110" height="50" as="geometry" />
        </mxCell>
        <mxCell id="Am2DClsoOV5Q-4V6qdpF-22" value="" style="endArrow=classic;startArrow=classic;html=1;rounded=0;exitX=1;exitY=0.5;exitDx=0;exitDy=0;entryX=0;entryY=0.5;entryDx=0;entryDy=0;" parent="1" source="YRCod2hEBOEXPZXy-oD2-38" target="Am2DClsoOV5Q-4V6qdpF-15" edge="1">
          <mxGeometry width="50" height="50" relative="1" as="geometry">
            <mxPoint x="403" y="570" as="sourcePoint" />
            <mxPoint x="590" y="590" as="targetPoint" />
          </mxGeometry>
        </mxCell>
        <mxCell id="Am2DClsoOV5Q-4V6qdpF-23" value="LzMessage" style="edgeLabel;html=1;align=center;verticalAlign=middle;resizable=0;points=[];" parent="Am2DClsoOV5Q-4V6qdpF-22" vertex="1" connectable="0">
          <mxGeometry x="0.1467" relative="1" as="geometry">
            <mxPoint x="-8" as="offset" />
          </mxGeometry>
        </mxCell>
        <mxCell id="Am2DClsoOV5Q-4V6qdpF-24" value="" style="endArrow=classic;startArrow=classic;html=1;rounded=0;exitX=0.75;exitY=1;exitDx=0;exitDy=0;entryX=0.75;entryY=0;entryDx=0;entryDy=0;" parent="1" source="YRCod2hEBOEXPZXy-oD2-2" target="Am2DClsoOV5Q-4V6qdpF-15" edge="1">
          <mxGeometry width="50" height="50" relative="1" as="geometry">
            <mxPoint x="430" y="595" as="sourcePoint" />
            <mxPoint x="800" y="560" as="targetPoint" />
          </mxGeometry>
        </mxCell>
        <mxCell id="Am2DClsoOV5Q-4V6qdpF-25" value="LzMessage" style="edgeLabel;html=1;align=center;verticalAlign=middle;resizable=0;points=[];" parent="Am2DClsoOV5Q-4V6qdpF-24" vertex="1" connectable="0">
          <mxGeometry x="0.1467" relative="1" as="geometry">
            <mxPoint x="-7" y="-15" as="offset" />
          </mxGeometry>
        </mxCell>
      </root>
    </mxGraphModel>
  </diagram>
</mxfile>
